<svg width="163" height="32" viewBox="0 0 163 32" fill="none" xmlns="http://www.w3.org/2000/svg">
<path d="M82 0L85.5922 11.0557H97.2169L87.8123 17.8885L91.4046 28.9443L82 22.1115L72.5954 28.9443L76.1877 17.8885L66.7831 11.0557H78.4078L82 0Z" fill="#FAB915"/>
<path d="M115 0L118.592 11.0557H130.217L120.812 17.8885L124.405 28.9443L115 22.1115L105.595 28.9443L109.188 17.8885L99.7831 11.0557H111.408L115 0Z" fill="#FAB915"/>
<path d="M147 0L150.592 11.0557H162.217L152.812 17.8885L156.405 28.9443L147 22.1115L137.595 28.9443L141.188 17.8885L131.783 11.0557H143.408L147 0Z" fill="#FAB915"/>
<path d="M16 0L19.5922 11.0557H31.2169L21.8123 17.8885L25.4046 28.9443L16 22.1115L6.59544 28.9443L10.1877 17.8885L0.783095 11.0557H12.4078L16 0Z" fill="#FAB915"/>
<path d="M48 0L51.5922 11.0557H63.2169L53.8123 17.8885L57.4046 28.9443L48 22.1115L38.5954 28.9443L42.1877 17.8885L32.7831 11.0557H44.4078L48 0Z" fill="#FAB915"/>
</svg>
