<svg width="125" height="213" viewBox="0 0 125 213" fill="none" xmlns="http://www.w3.org/2000/svg">
<path fill-rule="evenodd" clip-rule="evenodd" d="M33.8259 24.0267L90.5886 23.9262C90.8065 29.1215 85.5106 37.3166 81.3712 41.0203C76.8462 45.0593 70.0588 48.2937 62.1318 48.2602C47.8364 48.2267 35.3175 36.9144 33.8259 24.0267ZM20.6031 23.9262H27.4743C28.2452 25.9708 27.8932 29.2723 31.178 35.5402C40.6468 53.5225 58.1767 53.8577 58.7968 54.3605C59.0314 54.6789 58.9309 54.394 59.065 54.9471C59.1487 55.299 59.1487 55.5336 59.1487 55.9191C59.2493 60.4775 58.0259 66.6113 62.1486 66.7454C66.8914 66.913 64.9641 60.1926 65.4669 54.3605C74.3994 52.7014 79.9634 50.9081 86.5329 44.6403C90.5886 40.7522 93.7728 35.8418 95.566 30.2946C96.2364 28.183 96.538 26.0546 97.0911 23.9262H103.946C104.314 26.0713 104.063 49.6847 104.046 53.8745C104.013 63.0919 101.231 70.6502 97.0911 77.0186C87.6055 91.5822 75.472 92.3699 71.2487 96.0904C64.7127 101.839 64.7965 111.324 70.9638 116.939C73.6788 119.402 77.4998 120.19 81.0695 121.983C87.8904 125.419 93.3538 130.53 96.9905 136.094C105.454 149.015 104.046 159.288 104.046 174.288C104.046 177.891 104.482 186.304 103.946 189.337H20.6031C20.2176 187.226 20.469 163.529 20.4858 159.389C20.5863 143.518 29.301 129.106 43.3115 122.067C48.3224 119.536 58.1264 117.81 58.1767 106.766C58.227 95.5708 48.6409 93.8782 43.4623 91.2805C36.7587 87.9287 31.0607 82.6664 27.5413 77.1695C19.078 63.9299 20.4858 54.2935 20.4858 38.9925C20.4858 35.4061 20.05 26.9428 20.6031 23.9262ZM110.297 189.287C109.928 184.963 110.28 165.489 110.247 159.389C110.18 142.932 102.353 128.804 89.5998 119.871C82.846 115.129 77.0809 114.207 74.9692 112.162C73.662 110.889 72.5895 109.246 72.5559 106.766C72.4889 101.855 75.7569 100.146 79.5612 98.7383C97.5771 92.085 110.079 74.1528 110.247 54.1259C110.297 47.6904 109.912 28.5517 110.297 23.9765C114.219 23.1385 115.543 23.0379 118.341 20.9934C126.403 15.1445 127.358 0.765259 116.565 0.765259H71.9023C69.6734 0.765259 67.964 1.87135 68.2656 4.28465C68.5841 6.78173 70.5951 6.96608 73.176 6.94932C79.3098 6.91581 116.9 6.69794 117.638 7.15043C119.766 8.42411 117.42 17.7086 109.124 17.7086H15.4078C7.29645 17.7086 5.00047 9.16151 6.69313 7.31802C7.39701 6.53035 35.8202 6.94932 39.038 6.94932C44.5182 6.94932 49.9816 6.94932 55.4618 6.94932C58.3443 6.94932 60.9252 7.2845 61.7464 4.98852C62.7687 2.15625 60.6235 0.765259 58.0259 0.765259H7.96681C-2.64162 0.765259 -2.00478 14.6752 6.03953 20.8928C8.90532 23.105 10.4807 23.1888 14.2347 23.9765C14.6034 28.2668 14.2347 47.7407 14.2849 53.8745C14.419 74.0523 26.3179 91.2638 44.5852 98.6042C46.5963 99.3919 48.0208 99.6097 49.5626 101.118C50.8698 102.392 51.9424 103.917 51.9759 106.498C52.0765 114.307 44.6355 113.117 35.0828 119.771C22.346 128.603 14.4358 142.764 14.2849 159.138C14.2179 165.707 14.6369 184.595 14.2347 189.287C10.5645 190.075 8.95559 190.159 6.19036 192.27C4.07873 193.862 2.36931 195.773 1.21294 198.588C-1.50201 205.175 0.25768 212.498 7.96681 212.498H99.6217C104.7 212.498 104.649 206.398 99.6385 206.314C86.9016 206.096 72.4386 206.314 59.5677 206.314C46.2276 206.314 32.8707 206.314 19.5138 206.314C17.4692 206.314 7.71543 206.767 6.69313 205.945C5.06751 204.186 7.22942 195.555 15.4078 195.555H109.124C117.202 195.555 119.565 204.068 117.855 205.945C116.196 207.253 112.241 205.074 110.28 207.521C109.258 208.795 108.822 212.498 113.481 212.498H116.565C123.939 212.498 125.984 205.711 123.47 198.957C122.464 196.259 120.537 193.929 118.626 192.488C115.559 190.175 114.269 190.142 110.297 189.287Z" fill="#153540"/>
<path fill-rule="evenodd" clip-rule="evenodd" d="M33.7422 154.546C34.0438 162.808 39.7419 170.199 43.9819 173.684C49.328 178.092 57.4226 181.477 66.439 180.019C81.7902 177.506 92.2813 164.936 91.1082 147.088C79.1088 143.099 64.2938 157.965 48.8085 157.596C41.5686 157.411 38.971 155.669 33.7422 154.546Z" fill="#ffc45f"/>
<path fill-rule="evenodd" clip-rule="evenodd" d="M33.7424 154.546C38.9712 155.669 41.5688 157.411 48.8087 157.596C64.294 157.964 79.109 143.099 91.1084 147.088C92.2815 164.936 81.7904 177.505 66.4392 180.019C57.4228 181.477 49.3282 178.092 43.9821 173.684C39.7421 170.199 34.044 162.808 33.7424 154.546ZM97.3427 150.859C97.3427 143.77 97.0075 140.351 86.5667 140.351C67.8804 140.351 61.5455 156.439 38.1668 149.417C34.4965 148.311 30.7593 145.563 28.1449 148.948C26.9215 150.557 27.2064 152.853 27.4242 154.914C29.9884 178.109 53.8532 192.907 75.489 183.941C87.4214 178.98 97.3427 167.266 97.3427 150.859Z" fill="#153540"/>
<path fill-rule="evenodd" clip-rule="evenodd" d="M33.8257 24.0267C35.3172 36.9144 47.8362 48.2267 62.1316 48.2602C70.0586 48.2938 76.846 45.0593 81.3709 41.0204C85.5104 37.3166 90.8062 29.1215 90.5884 23.9262L33.8257 24.0267Z" fill="#ffc45f"/>
<path fill-rule="evenodd" clip-rule="evenodd" d="M65.4003 85.7165V79.5492C65.4003 74.2031 59.1324 74.2198 59.1324 79.5492C59.1324 84.1076 58.1939 89.5376 62.1323 89.6716C64.5624 89.7554 65.4003 87.8784 65.4003 85.7165Z" fill="#153540"/>
<path fill-rule="evenodd" clip-rule="evenodd" d="M65.4003 132.692V126.525C65.4003 121.195 59.1324 121.195 59.1324 126.525C59.1324 131.083 58.1939 136.53 62.1323 136.664C64.5624 136.748 65.4003 134.854 65.4003 132.692Z" fill="#153540"/>
</svg>
