<svg width="215" height="212" viewBox="0 0 215 212" fill="none" xmlns="http://www.w3.org/2000/svg">
<path fill-rule="evenodd" clip-rule="evenodd" d="M31.6708 169.925C31.6708 163.908 36.5812 159.082 43.7708 159.082H75.0598C75.1939 165.165 81.8807 175.572 84.646 180.785C74.0711 180.785 63.5129 180.785 52.938 180.785C45.983 180.785 37.6705 182.075 33.816 176.126C32.8607 174.651 31.6708 172.221 31.6708 169.925ZM214.377 136.574V145.39C213.958 151.909 212.601 158.478 210.255 164.981C205.394 178.455 195.959 190.505 184.345 198.717C179.284 202.303 173.368 205.554 167.402 207.632C152.771 212.727 138.241 212.979 123.342 208.822C117.242 207.113 114.695 205.772 109.533 203.024L103.332 199.219C97.2655 195.08 97.7012 194.845 92.5059 190.019C91.1149 188.745 90.9306 189.08 88.4167 189.114H44.1898C37.0169 189.13 33.3467 187.622 29.4754 184.22C26.4923 181.589 23.3249 176.276 23.3249 170.763C23.3249 165.735 23.3751 165.182 25.6879 160.607C27.0956 157.791 28.6039 157.004 29.9949 154.909C28.3526 152.445 23.3249 148.155 23.3249 141.568C23.3249 130.524 26.1404 130.658 29.9949 124.877C28.3526 122.413 23.3249 118.123 23.3249 111.536C23.3249 100.492 26.1404 100.626 29.9949 94.8444C28.3526 92.3809 23.3249 88.0906 23.3249 81.5043C23.3249 73.3259 25.889 67.3932 32.1066 63.5722C38.3912 59.7176 43.2848 60.6393 52.938 60.6393C52.1 57.0529 50.0219 56.282 50.0219 50.6342C50.0219 42.0872 51.8654 43.5619 52.938 38.9532L17.543 38.9029C8.25853 37.9309 0.800781 30.1548 0.800781 18.9262C0.800781 9.27306 9.49869 0.57515 19.1519 0.57515H123.024C132.677 0.57515 141.375 9.27306 141.375 18.9262C141.375 27.4733 139.532 25.9985 138.459 30.6072L173.854 30.6575C191.602 32.501 196.814 56.8351 181.831 66.0525C175.53 69.9238 170.636 68.9853 160.983 68.9853C161.519 71.2813 162.106 72.0522 163.614 72.622C171.458 75.5381 175.312 76.3928 183.155 81.8562C183.926 82.3925 184.479 82.8115 185.351 83.4148C187.077 84.6047 187.948 85.5097 189.524 86.7498C193.194 89.6156 197.97 94.8444 200.601 98.5984C208.763 110.229 213.523 123.201 214.377 136.574ZM143.47 203.309C134.152 203.309 125.823 200.962 117.846 197.644C91.668 186.751 75.6632 155.395 82.5511 126.955C90.9306 92.3641 125.085 71.9517 157.229 79.8284C181.228 85.694 198.305 102.671 204.288 126.619C212.333 158.83 192.289 192.884 157.564 201.566C153.978 202.454 147.693 203.309 143.47 203.309ZM72.546 137.814L72.965 150.752H43.7708C27.8833 150.752 27.699 129.05 43.7708 129.05H73.3839C73.3169 131.949 72.546 134.278 72.546 137.814ZM75.4621 120.704C66.429 120.704 57.3959 120.704 48.3628 120.704C42.5977 120.704 40.3687 121.072 36.5812 118.726C35.0226 117.754 34.2182 116.765 33.3467 115.274C29.9614 109.458 32.2071 102.922 38.1901 100.107C41.8771 98.3806 48.2287 99.0174 53.357 99.0174C64.2 99.0174 75.0598 99.0174 85.9029 99.0174C84.8471 101.012 81.4785 105.654 79.9032 108.888C78.7468 111.251 75.6464 118.508 75.4621 120.704ZM92.573 90.6714H43.7708C27.8833 90.6714 27.699 68.9853 43.7708 68.9853H143.47C145.783 68.9853 145.934 69.4043 148.045 69.4043V69.8233C133.113 69.8233 122.169 71.1137 109.231 78.5547C105.192 80.8842 98.6732 85.1075 95.3885 88.476C94.6679 89.2134 93.7126 90.6714 92.573 90.6714ZM58.3679 49.7963C58.3679 43.8971 63.1777 38.9532 70.4679 38.9532H170.15C173.854 38.9532 176.502 40.0761 178.58 41.7855C185.116 47.1819 182.803 60.6393 170.15 60.6393H70.4679C63.3286 60.6393 58.3679 55.729 58.3679 49.7963ZM9.14676 19.7642C9.14676 13.865 13.9566 8.92112 21.2467 8.92112H120.929C136.884 8.92112 136.9 30.6072 120.929 30.6072H21.2467C14.1074 30.6072 9.14676 25.6969 9.14676 19.7642Z" fill="#153540"/>
<path fill-rule="evenodd" clip-rule="evenodd" d="M139.297 112.374C135.811 113.179 132.325 115.173 130.213 117.469C124.867 123.284 124.264 132.519 129.577 138.351L131.638 140.446C134.789 143.228 138.442 144.635 143.889 144.904C155.603 145.49 155.587 160.339 142.632 160.339C139.33 160.339 136.213 157.976 135.124 155.747C134.319 154.071 134.52 152.177 133.9 150.719C132.845 148.272 129.61 147.417 127.364 149.244C123.929 152.026 126.309 161.947 134.303 166.59C136.046 167.612 137.554 167.847 139.297 168.685C139.297 170.645 139.297 171.902 140.084 172.891C142.481 175.941 147.626 174.383 147.626 170.344V168.266C150.877 168.199 154.397 165.735 156.559 163.422C166.262 153.015 159.24 137.999 145.447 136.239C142.833 135.921 137.168 136.222 134.99 131.262C132.526 125.681 137.638 120.704 142.213 120.704C148.933 120.704 151.363 122.229 152.67 129.016C153.626 133.91 160.983 134.329 160.983 127.39C160.983 121.005 156.005 115.508 150.442 113.313C149.352 112.877 148.531 112.793 147.626 112.374C147.626 110.615 148.095 106.107 143.47 106.107C138.811 106.107 139.297 110.447 139.297 112.374Z" fill="#ffc45f"/>
<path fill-rule="evenodd" clip-rule="evenodd" d="M160.982 95.2634C160.982 99.4699 164.133 99.7716 167.686 101.917C169.127 102.771 170.016 103.509 171.356 104.498C172.898 105.637 173.451 106.442 174.926 107.598L180.926 114.536C188.802 126.083 191.517 141.15 186.892 154.976C186.322 156.719 185.92 158.026 185.182 159.517C180.456 168.902 187.679 168.902 189.473 168.014C193.729 165.903 197.685 149.68 197.685 143.244C197.685 129.351 194.869 118.659 187.612 109.09C182.903 102.872 183.758 103.928 178.177 98.9169C175.831 96.8053 168.507 91.5094 164.736 91.5094C162.675 91.5094 160.982 93.2021 160.982 95.2634Z" fill="#ffc45f"/>
<path fill-rule="evenodd" clip-rule="evenodd" d="M89.2383 138.234C89.2383 153.635 92.7241 164.528 101.271 175.003C104.59 179.092 105.059 179.243 108.746 182.544C111.092 184.656 118.416 189.952 122.186 189.952C124.851 189.952 125.94 187.924 125.94 185.36C125.94 182.293 121.432 180.885 119.237 179.561C117.796 178.69 116.907 177.952 115.567 176.964L110.505 172.439C109.902 171.735 109.684 171.416 108.947 170.662C106.299 167.997 102.947 162.383 101.506 158.914C98.087 150.719 96.7463 141.602 98.5228 132.083C98.7909 130.625 99.2769 128.748 99.8132 127.122C101.422 122.229 103.416 119.531 103.416 116.95C103.416 114.05 99.964 112.106 97.3831 113.397C93.3945 115.374 89.2383 131.597 89.2383 138.234Z" fill="#ffc45f"/>
<path fill-rule="evenodd" clip-rule="evenodd" d="M145.548 90.2525C145.548 98.8834 158.218 93.9562 153.307 87.923C151.095 85.1913 145.548 86.3812 145.548 90.2525Z" fill="#ffc45f"/>
<path fill-rule="evenodd" clip-rule="evenodd" d="M132.61 190.79C132.61 195.734 141.375 197.242 141.375 190.371C141.375 185.276 132.61 185.175 132.61 190.79Z" fill="#ffc45f"/>
</svg>
