<svg width="125" height="213" viewBox="0 0 125 213" fill="none" xmlns="http://www.w3.org/2000/svg">
<path fill-rule="evenodd" clip-rule="evenodd" d="M34.1074 57.0418C34.4091 65.304 40.1071 72.6947 44.3472 76.1806C49.6933 80.5882 57.7879 83.9735 66.8042 82.5155C82.1554 80.0016 92.6466 67.4324 91.4734 49.5841C79.474 45.5954 64.659 60.4607 49.1905 60.092C41.9339 59.9076 39.3362 58.1647 34.1074 57.0418Z" fill="#ffc45f"/>
<path fill-rule="evenodd" clip-rule="evenodd" d="M34.1086 57.0419C39.3374 58.1648 41.935 59.9077 49.1917 60.092C64.6602 60.4607 79.4752 45.5955 91.4746 49.5842C92.6477 67.4325 82.1566 80.0017 66.8054 82.5156C57.789 83.9736 49.6945 80.5883 44.3483 76.1807C40.1083 72.6948 34.4103 65.3041 34.1086 57.0419ZM97.7089 53.3549C97.7089 46.2659 97.3738 42.847 86.9329 42.847C68.2466 42.847 61.9118 58.9357 38.533 51.9137C34.8628 50.8076 31.1255 48.0591 28.5111 51.4444C27.2877 53.0533 27.5726 55.3492 27.7905 57.4106C30.3546 80.605 54.2194 95.4032 75.8552 86.4372C87.7876 81.4765 97.7089 69.762 97.7089 53.3549Z" fill="#153540"/>
<path fill-rule="evenodd" clip-rule="evenodd" d="M91.1056 189.254C89.6141 176.349 77.0951 165.054 62.7997 165.003C54.8727 164.97 48.0853 168.204 43.5604 172.243C39.4209 175.947 34.1251 184.159 34.3429 189.337L91.1056 189.254Z" fill="#ffc45f"/>
<path fill-rule="evenodd" clip-rule="evenodd" d="M59.5308 127.564V133.714C59.5308 139.06 65.7986 139.044 65.7986 133.714C65.7986 129.156 66.7371 123.726 62.7988 123.592C60.3687 123.508 59.5308 125.385 59.5308 127.564Z" fill="#153540"/>
<path fill-rule="evenodd" clip-rule="evenodd" d="M91.1057 189.254L34.343 189.337C34.1251 184.159 39.421 175.947 43.5604 172.243C48.0854 168.204 54.8727 164.97 62.7997 165.003C77.0952 165.054 89.6141 176.349 91.1057 189.254ZM104.329 189.337H97.4573C96.6864 187.293 97.0384 183.991 93.7536 177.723C84.2848 159.741 66.7549 159.406 66.1348 158.903C65.9002 158.585 66.0007 158.87 65.8666 158.316C65.7828 157.965 65.7828 157.73 65.7828 157.361C65.6823 152.786 66.9057 146.652 62.783 146.518C58.0402 146.351 59.9675 153.071 59.4647 158.903C50.5322 160.562 44.9682 162.355 38.3987 168.64C34.343 172.528 31.1588 177.438 29.3656 182.969C28.6952 185.081 28.3936 187.209 27.8405 189.337H21.0028C20.6174 187.192 20.8688 163.579 20.8855 159.389C20.919 150.172 23.701 142.613 27.8405 136.245C37.3261 121.681 49.4596 120.894 53.6829 117.173C60.2189 111.425 60.1351 101.939 53.9678 96.325C51.2528 93.8782 47.4318 93.0737 43.8621 91.2805C37.0412 87.8617 31.5778 82.7502 27.9411 77.1695C19.4778 64.2483 20.8855 53.975 20.8855 38.9925C20.8855 35.3893 20.4498 26.9763 21.0028 23.9262H104.329C104.714 26.0378 104.463 49.735 104.446 53.8745C104.345 69.7452 95.6306 84.158 81.6201 91.2135C76.6092 93.7273 66.8051 95.4703 66.7549 106.498C66.7046 117.693 76.2907 119.385 81.4693 121.983C88.1729 125.335 93.8709 130.597 97.3903 136.094C105.854 149.35 104.446 158.97 104.446 174.288C104.446 177.857 104.882 186.321 104.329 189.337ZM14.6344 23.9765C15.0031 28.3003 14.6512 47.7742 14.6847 53.8745C14.7685 70.3318 22.5782 84.4596 35.3318 93.3922C42.0856 98.135 47.8507 99.0567 49.9624 101.101C51.2696 102.375 52.3421 104.017 52.3757 106.498C52.4427 111.408 49.1747 113.117 45.3704 114.525C27.3545 121.179 14.8523 139.111 14.6847 159.138C14.6344 165.573 15.0199 184.712 14.6344 189.287C10.7128 190.125 9.38886 190.226 6.59011 192.27C-1.47096 198.119 -2.42622 212.498 8.36657 212.498H53.046C55.2582 212.498 56.9676 211.392 56.666 208.979C56.3475 206.482 54.3365 206.314 51.7556 206.314C45.6385 206.348 8.03139 206.566 7.29399 206.113C5.1656 204.856 7.51186 195.555 15.8076 195.555H109.524C117.635 195.555 119.931 204.102 118.255 205.945C117.535 206.733 89.1114 206.314 85.8936 206.314C80.4302 206.314 74.95 206.331 69.4698 206.314C66.5873 206.314 64.0064 205.979 63.1852 208.292C62.1629 211.107 64.3081 212.498 66.9057 212.498H116.965C127.573 212.498 126.936 198.588 118.892 192.371C116.026 190.175 114.451 190.092 110.697 189.287C110.328 184.997 110.697 165.523 110.647 159.389C110.513 139.228 98.6137 122 80.3464 114.676C78.3353 113.872 76.9108 113.654 75.369 112.162C74.0618 110.872 72.9892 109.347 72.9557 106.766C72.8551 98.9561 80.2961 100.146 89.8488 93.5095C102.586 84.6607 110.496 70.4994 110.647 54.1259C110.714 47.5731 110.295 28.669 110.697 23.9765C114.384 23.1888 115.976 23.105 118.741 20.9934C120.853 19.4012 122.562 17.4907 123.719 14.6752C126.434 8.08893 124.674 0.765259 116.965 0.765259H25.3099C20.2319 0.765259 20.2822 6.86553 25.2931 6.94932C38.03 7.16719 52.493 6.94932 65.3639 6.94932C78.704 6.94932 92.0609 6.94932 105.418 6.94932C107.462 6.94932 117.216 6.49683 118.255 7.31802C119.864 9.09447 117.702 17.7086 109.524 17.7086H15.8076C7.72973 17.7086 5.36671 9.19503 7.07613 7.31802C8.73526 6.01082 12.6904 8.18949 14.6512 5.74268C15.6735 4.46899 16.1092 0.765259 11.4502 0.765259H8.36657C0.992614 0.765259 -1.05198 7.55265 1.46187 14.3065C2.4674 17.0047 4.41145 19.351 6.30521 20.7755C9.37211 23.0882 10.6625 23.1385 14.6344 23.9765Z" fill="#153540"/>
</svg>
