<svg width="209" height="209" viewBox="0 0 209 209" fill="none" xmlns="http://www.w3.org/2000/svg">
<path fill-rule="evenodd" clip-rule="evenodd" d="M118.388 181.293C126.918 181.293 133.907 180.958 139.471 189.505C143.526 195.756 140.929 195.856 137.745 197.8C136.32 198.672 134.443 199.426 132.968 199.946C131.41 200.499 129.533 200.901 127.79 201.27C113.008 204.303 103.07 195.99 101.311 195.521C101.428 190.209 106.523 184.544 111.584 182.617C113.595 181.846 115.79 181.293 118.388 181.293ZM17.0463 0.731537H18.4876C20.5825 0.832091 22.6606 1.30134 24.6046 2.20633C36.051 7.58596 38.6654 24.5796 28.1073 31.6351C28.7274 34.2663 35.4812 48.2265 37.4588 51.9805C48.4192 46.7182 65.9323 49.651 74.8816 56.0362C76.1385 56.9412 77.9317 58.0975 79.0546 59.1869C81.9539 62.0024 87.7525 67.3988 88.7078 71.488L98.4447 67.4155C106.02 64.0973 120.6 58.5836 126.935 55.2318C126.03 51.3604 124.89 48.4108 124.89 43.4334C124.89 40.0146 125.276 33.8473 126.516 31.2329C125.125 31.1156 122.477 29.9257 121.069 29.3726C114.031 26.6577 116.896 26.9593 111.986 31.3334C104.897 37.6516 94.0874 36.2438 87.786 29.7246C84.1326 25.937 83.4119 21.7473 83.4119 16.6023C83.4119 8.64178 91.6741 0.731537 99.6849 0.731537C107.897 0.731537 114.902 5.07211 117.181 12.5299C118.12 15.6135 117.986 16.6693 117.986 20.658C119.377 21.3283 122.025 22.1663 123.617 22.7528C125.343 23.3562 127.337 23.9427 128.963 24.7304C129.499 22.4177 133.236 17.3062 134.778 15.4962C139.437 9.9825 145.387 5.77599 152.208 3.22863C162.179 -0.47511 175.352 0.111454 184.67 4.80397C187.871 6.41283 190.938 8.13901 193.518 10.6026C194.591 11.6249 195.161 11.8092 196.183 12.8148C208.199 24.8477 211.953 45.1093 204.194 60.5108C195.932 76.9514 179.826 85.7331 161.123 83.6717C159.179 83.4539 157.906 82.8841 155.794 82.8841C155.358 83.8226 155.14 84.7108 154.738 85.8839L145.236 112.162C144.498 113.989 143.929 116.033 143.191 117.86C142.085 120.659 139.37 126.826 139.136 129.642C141.096 130.178 146.107 133.58 147.733 134.87C148.504 135.474 148.889 135.977 149.593 136.664C151.219 138.239 152.744 140.2 154.587 141.44C156.414 140.468 157.772 139.395 159.548 138.273C161.324 137.116 162.699 136.295 164.509 135.105C166.553 133.731 172.536 129.357 174.514 128.837C174.43 125.569 173.223 124.011 173.676 119.888C173.994 117.039 175.151 114.424 176.475 112.497C180.212 107.101 185.374 104.838 191.993 104.838C201.244 104.838 207.898 113.218 208.266 121.815V123.273C208.183 125.268 207.747 127.245 206.909 129.122C203.607 136.563 194.809 141.406 186.647 139.06C182.039 137.753 181.837 136.714 178.569 134.535C173.659 137.82 162.565 145.261 158.241 147.54C165.564 161.366 164.76 178.947 155.459 191.533L151.034 196.862C147.616 200.281 143.61 202.828 139.27 205.024C133.287 208.04 126.449 208.945 119.209 208.945C106.271 208.945 93.9366 200.7 87.3168 191.231C84.7191 187.527 83.7806 184.242 81.7863 180.472C79.0713 181.108 76.6916 181.645 73.9096 182.349C71.1276 183.053 68.6305 183.907 65.9323 184.142C65.9323 193.862 58.7427 202.04 49.6593 202.04C32.0121 202.04 26.0962 182.667 36.1348 172.645C45.1344 163.662 58.5751 166.411 64.3067 177.22C68.7143 176.198 75.7028 173.936 80.1607 173.567C80.1607 171.254 79.7585 170.751 79.7585 168.288C79.7585 162.422 81.25 154.713 83.4119 150.372C86.0431 145.077 87.8028 143.401 90.7356 138.993C89.2608 136.798 78.9876 125.485 77.3117 124.363C74.295 125.955 71.9655 127.899 68.4964 129.357C50.3632 136.999 38.766 129.558 35.0287 129.239C34.3081 130.312 34.0064 130.915 33.4031 132.088L28.9285 140.217C29.9172 141.708 30.8557 142.161 32.0121 144.054C41.3971 159.422 24.9398 176.818 9.25342 168.841C3.08611 165.69 0.0527344 159.255 0.0527344 152.417C0.0527344 144.423 7.94622 136.161 15.9067 136.161L22.8282 136.563C23.4148 134.334 25.8951 130.48 27.219 128.351C27.8894 127.279 28.2078 126.943 28.5262 125.586C27.7889 124.58 25.8448 123.374 24.7555 122.419C23.5488 121.363 22.4595 120.156 21.2864 118.983L16.7279 112.983C10.2087 103.162 8.5663 88.6827 12.6052 77.538C15.957 68.3038 22.1914 59.874 30.9563 55.2318C29.9843 51.0588 22.5098 38.7912 21.6048 34.9031C19.711 35.8081 15.6889 35.6405 13.3091 35.0539C10.7785 34.4339 8.80092 33.3278 7.00771 32.0038C2.01354 28.2665 0.0527344 23.2724 0.0527344 17.0045C0.0527344 7.73679 8.44899 1.08348 17.0463 0.731537ZM38.28 184.946C38.28 181.41 40.0229 178.31 42.4362 176.517C52.7095 168.824 64.7257 183.086 55.8937 191.985C49.4079 198.521 38.28 193.309 38.28 184.946ZM111.064 163.813C111.064 160.16 113.545 156.238 116.88 154.562C120.5 152.769 125.678 153.456 128.829 156.624C131.359 159.154 132.65 163.78 130.94 167.819C126.583 178.159 111.064 174.69 111.064 163.813ZM17.1301 143.066C22.6941 143.066 27.7051 147.691 27.7051 153.238C27.7051 162.472 16.8452 167.014 10.3092 160.88C7.64455 158.383 6.2368 153.892 7.81214 149.602C8.935 146.535 12.9404 143.066 17.1301 143.066ZM104.16 161.769C104.16 166.461 104.076 169.427 107.193 173.785C108.115 175.092 108.215 174.455 108.634 176.014C105.383 177.723 103.472 178.611 100.791 181.176C99.333 182.567 95.7968 187.175 95.6125 189.421C92.5288 188.6 87.0821 176.349 87.0821 169.092C87.0821 158.115 89.5122 150.59 97.1375 142.965C100.204 139.898 102.551 138.138 106.59 136.144C119.528 129.792 134.108 132.792 145.118 141.959C146.509 143.133 146.861 143.904 147.984 145.194C164.207 163.696 151.621 188.265 147.264 189.421C146.493 186.153 143.208 181.98 140.527 179.902C139.705 179.248 139.487 178.98 138.733 178.444C137.409 177.472 135.767 176.801 134.242 176.014C135.214 172.427 138.717 173.667 138.717 161.769C138.717 159.305 136.773 154.998 135.164 153.138C134.812 152.719 134.56 152.467 134.192 152.065C132.298 150.021 131.041 148.998 128.276 147.825C121.455 144.909 113.846 146.568 108.886 151.864L106.254 155.333C105.467 156.657 104.16 159.825 104.16 161.769ZM191.189 132.491C179.324 132.491 177.095 116.871 186.563 112.832C194.943 109.246 203.674 116.838 200.507 125.955C199.384 129.156 195.563 132.491 191.189 132.491ZM50.8827 104.838C59.5806 104.838 65.3457 105.961 69.9209 113.05C72.1331 116.486 71.5633 117.274 72.4348 119.067C70.2561 119.653 59.1617 129.792 40.6598 123.608C37.0566 122.402 34.7606 120.659 31.7775 119.067C32.1127 115.061 35.4142 110.637 38.0286 108.659C41.5647 106.011 44.9333 104.838 50.8827 104.838ZM41.9334 88.5821V86.5375C41.9334 79.3144 51.9385 73.5661 59.0779 79.968C65.3625 85.5823 62.0442 97.28 52.4078 97.7158C47.2963 97.9504 41.9334 93.8109 41.9334 88.5821ZM91.959 78.0072C93.2159 77.3369 95.1935 76.5659 96.4839 76.0297L110.779 69.9797C114.031 68.5887 116.88 67.3653 120.198 65.9743C122.008 65.2201 123.265 64.7006 125.041 63.9129C126.55 63.2425 128.443 62.1867 130.186 62.1365C130.94 65.3709 135.7 70.2813 138.013 72.6108C140.275 74.89 143.04 76.9682 145.906 78.5435C149.895 80.7054 150.029 78.1413 144.884 91.8837C144.146 93.8445 143.51 95.8053 142.856 97.5817L132.214 126.793C126.298 126.793 119.779 123.156 106.824 128.251C104.696 129.072 103.137 129.91 101.311 130.865C99.3832 131.854 97.9587 133.094 96.0314 134.116C95.4281 133.228 95.2438 133.195 94.5064 132.39L82.6075 119.486C86.1436 114.19 89.7301 112.028 92.3612 102.006C92.8137 100.33 93.35 98.0342 93.5176 96.241C94.6404 84.8449 92.9645 85.8169 91.959 78.0072ZM162.313 56.4552C170.19 56.4552 175.503 55.5167 181.519 60.8125C183.714 62.7398 186.63 66.829 186.714 70.6835C185.826 70.9182 171.38 81.4596 154.571 74.756L146.442 70.6835C146.593 63.9129 154.487 56.4552 162.313 56.4552ZM34.6265 87.3587C34.6265 90.2245 35.1628 92.5205 36.2354 94.6824C38.5481 99.3917 38.0286 97.3638 39.5034 99.5593C33.9729 102.475 27.6548 106.598 26.0794 113.385C24.2024 112.129 21.2528 106.816 20.2138 104.202C11.0466 81.292 26.7498 56.4552 52.9106 56.4552C75.6357 56.4552 93.4841 80.454 84.1158 103.917C83.0432 106.615 80.1104 112.045 78.1328 113.385C77.5966 111.089 74.4961 106.732 72.9543 105.14C70.6919 102.777 67.6417 101.101 64.7089 99.5593C66.0329 97.5817 67.8428 95.5874 68.6305 92.8892C69.5522 89.7217 69.7366 86.856 69.016 83.4539C66.4016 71.2198 51.2012 66.4435 42.2854 73.0633C38.347 75.9794 34.6265 80.6216 34.6265 87.3587ZM165.564 28.8028H167.592C172.654 28.8028 176.944 33.7803 176.944 38.9588C176.944 52.0978 157.118 52.7179 156.314 39.294C156.012 34.2327 160.503 28.8028 165.564 28.8028ZM149.291 36.9309C149.291 41.7743 149.359 44.5395 152.375 48.8969C153.146 50.0197 153.515 50.1873 154.168 51.1593C148.956 52.3827 141.968 59.3545 140.761 64.5833C138.7 64.0302 135.7 57.9132 134.946 56.1535C130.404 45.6791 131.611 34.6852 136.823 24.8645C138.616 21.4792 141.331 18.6804 144.096 16.2839C158.777 3.49677 180.698 6.02738 192.094 18.9318C195.563 22.8702 198.244 27.2945 199.719 32.4563C201.378 38.1711 201.68 44.7741 200.138 50.7571C199.183 54.4776 195.831 62.5554 192.815 64.5833C188.658 56.7401 186.53 54.5949 179.391 51.1593C179.726 49.9024 180.497 49.5169 181.921 47.1874C186.245 40.0816 184.033 30.1268 176.609 24.6634C169.922 19.753 161.475 20.6915 154.973 25.937C152.811 27.6967 149.291 33.1099 149.291 36.9309ZM100.908 28.3839C89.8139 28.3839 86.3615 13.4516 96.2996 8.74233C103.774 5.18943 113.645 12.0439 110.226 21.8479C109.07 25.1159 105.366 28.3839 100.908 28.3839ZM27.7051 17.8089C27.7051 29.6743 12.0857 31.9032 8.04677 22.4344C4.46035 14.0549 12.0522 5.3235 21.1691 8.49095C24.37 9.6138 27.7051 13.4348 27.7051 17.8089Z" fill="#153540"/>
<path d="M52.4413 99.4755C58.8093 99.4755 63.9715 94.3133 63.9715 87.9453C63.9715 81.5774 58.8093 76.4152 52.4413 76.4152C46.0734 76.4152 40.9111 81.5774 40.9111 87.9453C40.9111 94.3133 46.0734 99.4755 52.4413 99.4755Z" fill="#ffc45f"/>
<path d="M121.606 175.142C127.974 175.142 133.137 169.98 133.137 163.612C133.137 157.244 127.974 152.082 121.606 152.082C115.238 152.082 110.076 157.244 110.076 163.612C110.076 169.98 115.238 175.142 121.606 175.142Z" fill="#ffc45f"/>
<path d="M167.141 50.4052C173.508 50.4052 178.671 45.2429 178.671 38.875C178.671 32.507 173.508 27.3448 167.141 27.3448C160.773 27.3448 155.61 32.507 155.61 38.875C155.61 45.2429 160.773 50.4052 167.141 50.4052Z" fill="#ffc45f"/>
</svg>
