<svg width="196" height="216" viewBox="0 0 196 216" fill="none" xmlns="http://www.w3.org/2000/svg">
<path fill-rule="evenodd" clip-rule="evenodd" d="M55.1543 73.7059C55.1543 77.0577 55.2716 78.7169 56.076 81.8676C56.3609 82.9737 56.6123 83.6273 56.9643 84.6831C57.333 85.7892 57.6849 86.3757 58.0704 87.2807C58.9251 89.3588 60.9194 92.2749 62.478 93.9508C64.5561 96.1797 63.6511 95.5429 66.1985 97.621C69.7011 100.487 74.1255 102.733 78.6001 103.671C83.4435 104.693 86.9293 104.727 91.7392 103.637C95.3256 102.816 99.1634 101.308 102.063 99.1964C102.817 98.6601 103.504 98.1741 104.174 97.621C106.202 95.9619 108.163 93.9173 109.655 91.7721C116.878 81.3313 117.263 67.0191 109.738 57.0308L107.157 53.9471C95.2418 41.2606 76.0025 41.1432 64.2041 52.9583C58.7072 58.4553 55.1543 65.2929 55.1543 73.7059Z" fill="#153540"/>
<path fill-rule="evenodd" clip-rule="evenodd" d="M108.633 208.247C100.924 208.247 86.8629 203.588 79.1873 201.426C74.3607 200.086 69.7855 198.778 65.026 197.454C56.8811 195.175 50.8479 192.427 43.1723 195.46C41.312 196.214 39.0831 197.421 37.4072 198.326C37.4072 195.292 37.4072 192.276 37.3904 189.242C37.3737 185.673 37.8429 183.846 37.8262 180.193C37.8094 173.422 38.2619 168.16 38.2619 161.624C45.3007 156.914 52.1048 155.138 61.5736 155.138C69.6179 155.138 75.2322 157.853 80.7124 160.618C83.31 161.925 86.2764 163.266 89.4606 163.953C91.2706 164.355 92.8627 164.624 94.8235 164.64C97.5049 164.674 98.2088 165.093 100.84 165.093C105.113 165.093 121.671 165.076 124.805 165.746C131.593 167.188 136.051 171.545 137.559 178.031C133.57 178.031 130.688 177.595 126.33 177.595C124.319 177.595 122.275 177.645 120.28 177.612C117.817 177.578 117.28 177.159 114.7 177.142C111.163 177.142 105.968 177.478 102.65 177.092C99.1473 176.707 94.8235 176.372 94.8235 180.612C94.8235 185.019 99.4489 184.5 103.89 184.5C108.666 184.5 111.784 184.935 116.409 184.935C125.14 184.919 132.85 185.371 141.883 185.371C146.29 185.371 145.57 180.025 144.899 177.159L161.172 169.685C164.289 168.126 175.267 162.478 178.132 162.478C181.384 162.478 184.3 162.462 186.344 165.512C184.383 166.031 179.171 169.869 177.278 171.126C175.786 172.115 174.412 172.886 172.786 173.975L131.341 200.722C129.682 201.812 128.593 202.583 126.95 203.672C122.878 206.387 114.08 208.247 108.633 208.247ZM111.934 215.588H106.672C102.03 215.303 97.287 214.331 91.9744 212.806C87.5668 211.549 54.3002 201.778 51.2166 201.778C43.055 201.778 41.8986 205.8 36.9714 206.957C36.9714 211.096 36.7871 213.124 33.4185 213.778L3.80542 212.906C-1.23904 211.884 1.17426 202.733 1.14074 196.164C1.09046 183.159 2.04572 169.031 1.99545 155.993L2.41442 146.071C2.88367 140.306 9.87217 142.619 18.4025 142.619L27.8881 143.071C38.7311 143.206 38.6976 141.949 38.6976 152.557C39.6864 152.322 44.3789 150.077 48.5351 149.004C70.7408 143.273 82.0196 154.468 90.8348 156.546L109.488 157.736C114.348 157.719 123.867 157.601 127.889 158.775C133.721 160.467 141.179 165.428 142.302 170.255L151.368 165.931C152.843 165.21 154.234 164.741 155.843 163.92C161.675 160.987 173.524 154.719 179.44 154.719C184.467 154.719 189.998 157.585 193.132 161.305C198.612 167.808 194.288 168.83 189.193 172.249L139.905 204.108C136.671 206.085 130.487 210.66 127.386 211.901C121.789 214.13 116.828 215.286 111.934 215.588ZM29.631 206.085L8.48117 205.649C8.48117 195.778 8.88339 187.365 8.88339 177.578C8.90015 174.846 9.35264 173.992 9.35264 171.126C9.33588 168.679 9.35264 166.232 9.33588 163.786C9.31912 159.11 9.77161 155.088 9.77161 149.959L30.9215 150.395C30.9215 169.232 29.631 187.265 29.631 206.085Z" fill="#153540"/>
<path fill-rule="evenodd" clip-rule="evenodd" d="M78.249 4.74279V37.5569C78.249 43.2214 86.0252 43.2214 86.0252 37.5569V4.74279C86.0252 1.9608 84.5839 0.385457 82.9415 0H81.3327C79.6903 0.385457 78.249 1.9608 78.249 4.74279Z" fill="#ffc45f"/>
<path fill-rule="evenodd" clip-rule="evenodd" d="M105.448 22.876C105.448 26.9149 104.727 38.4786 106.403 40.4897C108.599 43.1376 113.224 41.7299 113.224 37.5569V22.876C113.224 16.407 105.448 16.407 105.448 22.876Z" fill="#ffc45f"/>
<path fill-rule="evenodd" clip-rule="evenodd" d="M51.0479 22.876V37.5569C51.0479 43.2214 58.824 43.2214 58.824 37.5569V22.876C58.824 16.4071 51.0479 16.4071 51.0479 22.876Z" fill="#ffc45f"/>
<path fill-rule="evenodd" clip-rule="evenodd" d="M82.8072 129.396C82.8072 126.547 85.539 122.927 88.2539 122.927C91.2538 122.927 92.0582 122.625 94.3039 125.039C99.7673 130.921 91.2202 139.753 84.9356 134.072C83.729 132.983 82.8072 130.435 82.8072 129.396ZM180.076 52.4724H182.154C185.188 52.7238 188.02 54.0645 189.931 56.3102C199.265 67.2706 186.445 81.633 174.831 75.1473C173.306 74.2926 172.619 73.1027 171.295 72.2145L148.385 82.6553C147.195 83.2586 146.173 83.5603 145.1 84.1301C145.1 89.8449 144.866 91.1354 142.235 94.5374C140.693 96.5485 136.956 98.7607 133.52 98.7607C128.643 98.7607 129.28 97.7384 126.381 97.068C124.688 98.1909 121.336 101.928 119.643 103.604C117.415 105.85 115.42 107.844 113.191 110.073C110.862 112.403 108.717 114.212 106.37 116.542C104.728 118.201 101.477 121.821 99.8176 122.927C101.51 126.128 101.527 126.782 101.527 130.066C101.527 142.217 82.4553 146.624 77.8466 132.999C77.2265 131.139 77.3606 129.648 77.3606 127.352C75.3662 127.184 58.0375 119.391 54.2164 118.503C52.6243 120.883 49.0044 123.262 45.0325 123.262C33.6531 123.262 28.6254 110.827 35.748 102.766C38.597 99.5316 42.0494 99.0959 46.0548 99.0959C51.1495 99.0959 56.3616 104.308 56.8643 110.76C56.9481 111.967 56.6297 112.151 56.5962 113.391C57.9201 113.509 61.1546 115.017 62.5791 115.587C65.6963 116.827 77.5282 121.737 79.7403 122.24C80.6118 120.631 81.5671 119.776 83.377 118.721C89.2259 115.319 93.3822 118.218 96.0804 118.838C97.7563 117.715 101.125 113.978 102.801 112.285C105.046 110.056 107.024 108.062 109.27 105.816L122.627 92.9788C118.722 85.5881 121.655 77.5773 129.213 75.0467C136.838 72.4994 140.793 77.7282 142.704 79.0186C143.843 78.4153 144.748 78.1304 146.005 77.5438C147.262 76.9573 147.933 76.6388 149.273 76.0523C152.642 74.6278 166.837 67.589 168.915 67.103C168.915 65.4103 168.546 65.5611 168.664 64.1366C168.697 63.7009 169.066 61.7401 169.2 61.2708C169.686 59.5949 170.373 58.1872 171.395 56.9973C173.792 54.165 176.942 52.7405 180.076 52.4724ZM38.2283 111.699C38.2283 101.794 51.1495 102.733 51.1495 111.363C51.1495 114.648 48.5854 117.363 44.9152 117.682C41.5466 117.966 38.2283 115.117 38.2283 111.699ZM126.381 86.5099C126.381 79.4711 136.335 77.6947 138.916 83.8284C141.212 89.2751 136.805 92.9788 133.52 92.9788H131.811C129.096 92.9788 126.381 89.3421 126.381 86.5099ZM174.362 64.7232C174.362 56.2432 187.299 55.2041 187.299 65.0751C187.299 67.17 186.495 68.1588 185.355 69.2481C180.931 73.5049 174.362 69.885 174.362 64.7232Z" fill="#ffc45f"/>
<path fill-rule="evenodd" clip-rule="evenodd" d="M82.5715 56.7291C74.1585 58.6899 73.5217 71.1754 81.566 74.2255C84.4318 75.3148 85.8395 74.6612 87.3143 75.4489C91.856 77.8622 90.3645 84.5658 84.901 84.5658C82.9402 84.5658 81.5492 83.2586 80.8454 81.9179C79.7728 79.8398 80.9627 77.6108 77.9293 77.6108C73.6558 77.6108 76.2702 87.2137 82.5715 88.6885C82.5715 91.018 82.6051 93.0626 84.901 93.0626C87.4484 93.0626 87.2138 90.3644 87.2138 88.6885C90.6996 88.6047 94.4201 84.549 94.4201 79.404C94.4201 74.2758 90.3477 71.1419 86.0742 70.4883C84.2977 70.2201 82.7056 70.5888 81.2308 68.3934C77.1584 62.3937 86.6272 57.6174 89.4595 63.5165C90.5656 65.8125 89.2416 67.8068 92.6269 67.8068C95.3922 67.8068 94.7721 62.4272 92.1744 59.5111C90.0293 57.0978 89.1578 57.3995 87.2138 56.4778C87.2138 54.2656 87.0294 52.355 84.901 52.355C82.6051 52.355 82.5715 54.3996 82.5715 56.7291Z" fill="#FEFEFE"/>
</svg>
