<svg width="187" height="210" viewBox="0 0 187 210" fill="none" xmlns="http://www.w3.org/2000/svg">
<path fill-rule="evenodd" clip-rule="evenodd" d="M103.453 202.845C96.1298 202.845 82.8064 198.437 75.5163 196.393C70.9411 195.102 66.6005 193.879 62.0923 192.622C54.3664 190.443 48.6516 187.846 41.3782 190.728C39.585 191.432 37.4734 192.589 35.8813 193.426C35.8813 190.561 35.898 187.695 35.8813 184.829C35.8645 181.444 36.317 179.718 36.3002 176.232C36.2667 169.813 36.7024 164.836 36.7024 158.635C43.3725 154.16 49.8247 152.484 58.8243 152.484C66.4496 152.484 71.7622 155.048 76.9743 157.68C79.4379 158.92 82.2366 160.193 85.27 160.847C86.9794 161.216 88.4877 161.467 90.348 161.501C92.8953 161.534 93.5657 161.92 96.0628 161.92C100.118 161.92 115.822 161.903 118.788 162.54C125.223 163.914 129.463 168.037 130.888 174.187C127.1 174.187 124.369 173.785 120.246 173.785C118.335 173.785 116.391 173.818 114.498 173.802C112.168 173.768 111.665 173.366 109.202 173.349C105.85 173.349 100.923 173.668 97.7722 173.316C94.4539 172.93 90.348 172.612 90.348 176.651C90.348 180.807 94.7388 180.338 98.9453 180.338C103.487 180.321 106.437 180.74 110.827 180.74C119.106 180.723 126.43 181.142 134.977 181.142C139.167 181.142 138.48 176.081 137.843 173.366L153.278 166.277C156.244 164.802 166.652 159.439 169.383 159.439C172.467 159.439 175.232 159.422 177.159 162.305C175.299 162.808 170.355 166.461 168.562 167.634C167.154 168.573 165.83 169.31 164.305 170.333L124.989 195.722C123.413 196.745 122.374 197.482 120.816 198.521C116.961 201.102 108.615 202.845 103.453 202.845ZM106.587 209.817H101.593C97.1856 209.549 92.6942 208.61 87.6665 207.186C83.4768 205.979 51.9196 196.711 48.9868 196.711C41.2609 196.711 40.1548 200.532 35.479 201.622C35.479 205.543 35.2947 207.471 32.1105 208.091L4.02243 207.269C-0.77064 206.297 1.52534 197.616 1.49182 191.399C1.44155 179.047 2.34653 165.657 2.29625 153.289L2.71523 143.87C3.15096 138.407 9.78752 140.619 17.8653 140.602L26.8649 141.038C37.1549 141.155 37.1214 139.965 37.1214 150.021C38.0599 149.803 42.5011 147.674 46.4394 146.669C67.5222 141.222 78.1977 151.847 86.5604 153.808L104.275 154.948C108.867 154.931 117.916 154.814 121.721 155.92C127.251 157.529 134.324 162.238 135.396 166.813L143.993 162.724C145.384 162.02 146.708 161.584 148.233 160.813C153.764 158.031 164.992 152.082 170.607 152.082C175.383 152.082 180.629 154.797 183.595 158.333C188.79 164.5 184.701 165.472 179.858 168.707L133.1 198.923C130.05 200.8 124.184 205.141 121.252 206.314C115.939 208.426 111.23 209.532 106.587 209.817ZM28.5241 200.8L8.4468 200.398C8.4468 191.013 8.83226 183.053 8.84902 173.768C8.84902 171.171 9.28475 170.366 9.28475 167.651C9.26799 165.322 9.28475 162.992 9.26799 160.679C9.25123 156.255 9.68697 152.434 9.68697 147.574L29.7475 147.976C29.7475 165.841 28.5241 182.952 28.5241 200.8Z" fill="#153540"/>
<path fill-rule="evenodd" clip-rule="evenodd" d="M97.3019 138.558C81.0625 138.558 69.6831 132.692 60.3819 120.207C57.4155 116.218 55.0693 110.319 53.8962 105.408C50.2595 90.2917 55.7899 74.9573 64.8565 65.9744C82.4032 48.6121 109 48.5954 126.278 65.7733C131.758 71.22 135.613 78.4766 137.456 86.1355C140.808 100.129 136.401 115.715 126.479 125.569C119.022 132.977 108.949 138.558 97.3019 138.558ZM45.7178 94.7496C45.7178 100.33 45.9021 103.079 47.2596 108.358C47.7289 110.185 48.1311 111.257 48.7344 113.034C49.3377 114.844 49.941 115.832 50.5611 117.341C51.9856 120.793 55.3207 125.653 57.9016 128.435C61.3539 132.156 59.8456 131.066 64.0856 134.535C69.9177 139.295 77.2582 143.032 84.7159 144.608C92.7602 146.317 98.5588 146.367 106.57 144.541C112.536 143.183 118.921 140.669 123.764 137.167C125.005 136.262 126.127 135.457 127.267 134.535C130.636 131.787 133.904 128.385 136.384 124.815C148.383 107.436 149.02 83.6384 136.501 67.0135L132.228 61.8852C112.402 40.8024 80.3921 40.6013 60.7673 60.2429C51.6169 69.3933 45.7178 80.7726 45.7178 94.7496Z" fill="#153540"/>
<path fill-rule="evenodd" clip-rule="evenodd" d="M91.5705 70.181C78.2136 73.2982 77.1913 93.1241 89.9784 97.9842C94.5368 99.7104 96.749 98.6545 99.112 99.9115C106.335 103.766 103.955 114.408 95.2574 114.408C92.1403 114.408 89.9281 112.347 88.822 110.185C87.1293 106.9 89.0063 103.347 84.2133 103.347C77.4091 103.347 81.5486 118.614 91.5705 120.961C91.5705 124.681 91.6207 127.916 95.2574 127.916C99.3131 127.916 98.9444 123.625 98.9444 120.961C104.492 120.827 110.408 114.374 110.408 106.213C110.408 98.068 103.922 93.0738 97.1512 92.0347C94.3189 91.6158 91.7883 92.1856 89.4253 88.6997C82.9564 79.1806 98.0227 71.5888 102.514 80.9403C104.274 84.6105 102.179 87.778 107.542 87.778C111.949 87.778 110.961 79.2141 106.838 74.5719C103.419 70.7508 102.028 71.2536 98.9444 69.7621C98.9444 66.2594 98.6763 63.2093 95.2574 63.2093C91.6207 63.2093 91.5705 66.4605 91.5705 70.181Z" fill="#ffc45f"/>
<path fill-rule="evenodd" clip-rule="evenodd" d="M91.9897 4.65329V35.7747C91.9897 41.1711 99.3637 41.1711 99.3637 35.7747V4.65329C99.3637 2.02213 97.9895 0.530578 96.4309 0.16188H94.9058C93.3472 0.530578 91.9897 2.02213 91.9897 4.65329Z" fill="#ffc45f"/>
<path fill-rule="evenodd" clip-rule="evenodd" d="M117.781 21.8648C117.781 25.6858 117.111 36.6462 118.686 38.5567C120.764 41.0873 125.155 39.7466 125.155 35.7747V21.8648C125.155 15.731 117.781 15.731 117.781 21.8648Z" fill="#ffc45f"/>
<path fill-rule="evenodd" clip-rule="evenodd" d="M66.1807 21.8648V35.7747C66.1807 41.1711 73.5546 41.1711 73.5546 35.7747V21.8648C73.5546 15.731 66.1807 15.731 66.1807 21.8648Z" fill="#ffc45f"/>
</svg>
